<?xml version="1.0" encoding="UTF-8"?>
<svg version="1.1" xmlns="http://www.w3.org/2000/svg" width="89" height="64">
<path d="M0 0 C-0.38267135 6.25029866 -2.13654098 11.78242268 -4.2722168 17.63110352 C-6.21687737 22.73124767 -6.21687737 22.73124767 -6 28 C-3.77934724 29.88279411 -1.77469571 31.31594154 0.6875 32.8125 C1.3585376 33.24119385 2.0295752 33.6698877 2.72094727 34.11157227 C6.07512408 36.24131478 9.47534293 38.29040895 12.890625 40.3203125 C13.48915283 40.67891357 14.08768066 41.03751465 14.7043457 41.40698242 C16.35551915 42.38875494 18.01928233 43.34926141 19.68359375 44.30859375 C20.44800781 44.86675781 21.21242188 45.42492188 22 46 C22 46.99 22 47.98 22 49 C8.20140193 51.04423675 -1.02457112 49.28939149 -13 42 C-13.0825 42.99 -13.165 43.98 -13.25 45 C-13.87066368 49.40761166 -15.58915437 53.27001242 -18 57 C-21.13871188 58.56935594 -23.53855822 58.35201103 -27 58 C-35.37166536 52.29204635 -36.10828428 38.58515555 -38.1875 29.375 C-38.46013672 28.18003906 -38.73277344 26.98507813 -39.01367188 25.75390625 C-39.67881475 22.83661292 -40.34085635 19.91865356 -41 17 C-42.03640625 17.2165625 -43.0728125 17.433125 -44.140625 17.65625 C-45.51037448 17.93770537 -46.88016851 18.218944 -48.25 18.5 C-48.93191406 18.64308594 -49.61382812 18.78617188 -50.31640625 18.93359375 C-53.64633121 19.61251049 -56.58332551 20 -60 20 C-61.46563414 15.41989331 -62.11009697 11.85802884 -62 7 C-59.33580182 6.32184046 -56.66934242 5.65734223 -54 5 C-52.88431641 4.71382812 -52.88431641 4.71382812 -51.74609375 4.421875 C-45.9071055 3.0002083 -39.98763763 1.7777846 -34.25 4.125 C-29.34372415 8.21356321 -27.42097192 13.12703025 -25.875 19.1875 C-24.54491483 24.35853288 -24.54491483 24.35853288 -22 29 C-21.75092896 28.13048706 -21.75092896 28.13048706 -21.49682617 27.2434082 C-20.7344167 24.59758555 -19.96107175 21.95507961 -19.1875 19.3125 C-18.92646484 18.40048828 -18.66542969 17.48847656 -18.39648438 16.54882812 C-15.06213492 5.22850591 -15.06213492 5.22850591 -10.0625 2.25 C-6.45403618 0.77715762 -3.88878856 0 0 0 Z " fill="#793062" transform="translate(62,5)"/>
<path d="M0 0 C-0.38116473 6.22569065 -2.11991535 11.72600185 -4.2722168 17.54321289 C-5.69065295 21.50872777 -6.25228685 24.79521915 -6 29 C-6.66 29 -7.32 29 -8 29 C-8.33 29.99 -8.66 30.98 -9 32 C-9.66 32 -10.32 32 -11 32 C-12.06762717 35.06818839 -12.06762717 35.06818839 -12.875 38.5625 C-14 42 -14 42 -17 44 C-16.34 45.32 -15.68 46.64 -15 48 C-15.66 48 -16.32 48 -17 48 C-17.495 50.475 -17.495 50.475 -18 53 C-18.66 52.67 -19.32 52.34 -20 52 C-20.33 52.66 -20.66 53.32 -21 54 C-22.65 53.34 -24.3 52.68 -26 52 C-25.56556323 48.95894259 -25.07371871 46.19811903 -24 43.3125 C-23.11704526 40.38771242 -22.88092019 38.37213726 -22.75 35.375 C-22.31555327 29.55019563 -20.79164954 24.19490656 -19.125 18.625 C-18.8681543 17.75665527 -18.61130859 16.88831055 -18.34667969 15.99365234 C-15.01822693 5.20234796 -15.01822693 5.20234796 -10.0625 2.25 C-6.45403618 0.77715762 -3.88878856 0 0 0 Z " fill="#AC2D73" transform="translate(62,5)"/>
<path d="M0 0 C4.03090913 3.08245993 4.03090913 3.08245993 4.609375 6.41796875 C5.66960822 19.96712568 5.66960822 19.96712568 1.125 26.5 C-0.875 28.625 -0.875 28.625 -2.875 29.625 C-4.195 24.015 -5.515 18.405 -6.875 12.625 C-11.63225204 13.60796345 -11.63225204 13.60796345 -16.38769531 14.59960938 C-19.65458797 15.26388341 -22.52353954 15.625 -25.875 15.625 C-27.34063414 11.04489331 -27.98509697 7.48302884 -27.875 2.625 C-25.21080182 1.94684046 -22.54434242 1.28234223 -19.875 0.625 C-19.13121094 0.43421875 -18.38742188 0.2434375 -17.62109375 0.046875 C-11.70547231 -1.39345022 -5.69605808 -2.72420169 0 0 Z " fill="#802561" transform="translate(27.875,9.375)"/>
<path d="M0 0 C4.01634793 2.30607062 8.0134217 4.64283832 12 7 C13.07121094 7.63292969 14.14242187 8.26585937 15.24609375 8.91796875 C16.23738281 9.52253906 17.22867188 10.12710938 18.25 10.75 C19.16265625 11.30171875 20.0753125 11.8534375 21.015625 12.421875 C21.67046875 12.94265625 22.3253125 13.4634375 23 14 C23 14.99 23 15.98 23 17 C12.90127665 18.49610716 4.24425573 19.11702236 -5 14 C-5.33 13.34 -5.66 12.68 -6 12 C-4.68 12 -3.36 12 -2 12 C-2 10.68 -2 9.36 -2 8 C-1.44753288 5.29685728 -0.71149502 2.66810631 0 0 Z " fill="#863266" transform="translate(61,37)"/>
<path d="M0 0 C2.17258443 2.17258443 2.41834376 2.98562502 3.0703125 5.88671875 C3.24433594 6.66080078 3.41835938 7.43488281 3.59765625 8.23242188 C3.77167969 9.04259766 3.94570313 9.85277344 4.125 10.6875 C4.30675781 11.47833984 4.48851562 12.26917969 4.67578125 13.08398438 C6.36053332 20.75403983 6.31502626 26.84132009 4 34.4375 C3.62875 35.67371094 3.2575 36.90992188 2.875 38.18359375 C2.58625 39.11300781 2.2975 40.04242188 2 41 C0.02 41.495 0.02 41.495 -2 42 C-2.48108275 40.58398286 -2.95978141 39.16715563 -3.4375 37.75 C-3.70433594 36.96109375 -3.97117187 36.1721875 -4.24609375 35.359375 C-5.71336858 30.76748902 -6.51252384 26.86897647 -6 22 C-5.195625 21.2575 -4.39125 20.515 -3.5625 19.75 C1.20920574 14.62914506 0.1814982 6.71543322 0 0 Z " fill="#471A48" transform="translate(32,15)"/>
<path d="M0 0 C2.06707794 3.10061692 2.18929065 5.77668713 2.625 9.4375 C0.20990559 10.11036212 -2.20680356 10.77596012 -4.625 11.4375 C-5.30691406 11.62828125 -5.98882812 11.8190625 -6.69140625 12.015625 C-10.08100912 12.93707044 -12.83278976 13.4375 -16.375 13.4375 C-17.82684478 8.90048506 -18.61009196 5.25688524 -18.375 0.4375 C-4.63794091 -3.05127691 -4.63794091 -3.05127691 0 0 Z " fill="#7A295E" transform="translate(18.375,11.5625)"/>
<path d="M0 0 C2.32444946 2.18771713 3.8623477 3.87166826 4.2578125 7.11328125 C4.25083521 9.07738938 4.13285574 11.0403779 4 13 C-0.455 13.495 -0.455 13.495 -5 14 C-6.45184478 9.46298506 -7.23509196 5.81938524 -7 1 C-2.25 0 -2.25 0 0 0 Z " fill="#A94079" transform="translate(7,11)"/>
<path d="M0 0 C-0.33 2.64 -0.66 5.28 -1 8 C-3.3125 8.6875 -3.3125 8.6875 -6 9 C-7.8125 7.5625 -7.8125 7.5625 -9 6 C-9.33 6.99 -9.66 7.98 -10 9 C-10.66 9 -11.32 9 -12 9 C-12.4640625 10.3921875 -12.4640625 10.3921875 -12.9375 11.8125 C-13.625 13.875 -14.3125 15.9375 -15 18 C-15.99 18.33 -16.98 18.66 -18 19 C-17.53360168 13.40322011 -16.3133183 8.63028393 -13 4 C-8.80342687 1.28971319 -4.96362849 0 0 0 Z " fill="#CE4B87" transform="translate(62,5)"/>
<path d="M0 0 C4.53794643 0.47767857 4.53794643 0.47767857 6.4375 2.625 C7.40051263 6.69105331 5.82552382 10.34895235 4 14 C4.66 14.33 5.32 14.66 6 15 C3 16 3 16 0.375 15.375 C-2 14 -2 14 -3 11.9375 C-3 7.63368664 -1.53608222 3.98339965 0 0 Z " fill="#5B2556" transform="translate(54,34)"/>
<path d="M0 0 C3.35068825 3.35068825 3.92533859 7.34610547 4 12 C2.99606342 15.20930546 1.69067842 18.11827941 0.25390625 21.15625 C-1.39632612 24.89883306 -1.84930298 27.93118045 -2 32 C-1.67 32.66 -1.34 33.32 -1 34 C-1.99 35.32 -2.98 36.64 -4 38 C-6.71484682 27.31029065 -6.71484682 27.31029065 -6 22 C-5.195625 21.2575 -4.39125 20.515 -3.5625 19.75 C1.20920574 14.62914506 0.1814982 6.71543322 0 0 Z " fill="#6B2859" transform="translate(32,15)"/>
<path d="M0 0 C2.5 1 2.5 1 4 2 C3.01 2.495 3.01 2.495 2 3 C-0.40153162 7.65296751 -1.06850623 12.8966033 -2 18 C-3.72660984 14.94468218 -4.34227821 12.33707251 -4.8125 8.875 C-5.22545463 6.26548899 -5.22545463 6.26548899 -6 4 C-8.45748398 2.24431996 -8.45748398 2.24431996 -11 2 C-7.29598872 -0.46934085 -4.29412135 -0.44928433 0 0 Z " fill="#A73875" transform="translate(25,8)"/>
<path d="M0 0 C1.32 0.33 2.64 0.66 4 1 C4 2.32 4 3.64 4 5 C3 6 2 7 1 8 C1 9.32 1 10.64 1 12 C0.84685134 14.41756097 0.67894729 16.83421164 0.5 19.25 C0.4071875 20.51328125 0.314375 21.7765625 0.21875 23.078125 C0.1465625 24.04234375 0.074375 25.0065625 0 26 C-3.45624341 19.54834563 -3.57832186 13.22902322 -3 6 C-2.24712994 3.62758389 -1.39026048 2.08539072 0 0 Z " fill="#A72C73" transform="translate(26,13)"/>
<path d="M0 0 C2.8203125 1.328125 2.8203125 1.328125 6.125 3.25 C7.22070312 3.87390625 8.31640625 4.4978125 9.4453125 5.140625 C10.28835937 5.75421875 11.13140625 6.3678125 12 7 C12 7.99 12 8.98 12 10 C10.39884424 10.2493357 8.79379841 10.47378648 7.1875 10.6875 C6.29417969 10.81511719 5.40085937 10.94273438 4.48046875 11.07421875 C2 11 2 11 0.21875 9.75 C-1.66793618 7.04091215 -1.69565815 4.22602359 -2 1 C-1.34 0.67 -0.68 0.34 0 0 Z " fill="#B13474" transform="translate(72,44)"/>
<path d="M0 0 C5.875 4.625 5.875 4.625 7 8 C6.01 8.8971875 6.01 8.8971875 5 9.8125 C2.6626154 11.87501834 2.6626154 11.87501834 3 15 C-3.15234375 14.4140625 -3.15234375 14.4140625 -5 14 C-5.33 13.34 -5.66 12.68 -6 12 C-4.68 12 -3.36 12 -2 12 C-2 10.68 -2 9.36 -2 8 C-1.44753288 5.29685728 -0.71149502 2.66810631 0 0 Z " fill="#73275E" transform="translate(61,37)"/>
<path d="M0 0 C0.66 0.66 1.32 1.32 2 2 C1.6796875 3.81640625 1.6796875 3.81640625 1 6 C0.70570694 7.64536573 0.41417581 9.29122719 0.125 10.9375 C-0.63369168 14.82866869 -1.6203924 17.75508055 -4 21 C-4.66 20.67 -5.32 20.34 -6 20 C-4.9706067 12.75361298 -3.32399717 6.53504298 0 0 Z " fill="#581F52" transform="translate(35,27)"/>
<path d="M0 0 C2.22111286 0.38295049 3.80380283 0.86920188 5.6875 2.125 C7.63305811 4.90436873 7.68668789 7.67889163 8 11 C5.69 11.33 3.38 11.66 1 12 C1.33 11.34 1.66 10.68 2 10 C2.039992 8.00039988 2.04346799 5.99952758 2 4 C1.34 3.67 0.68 3.34 0 3 C0 2.01 0 1.02 0 0 Z " fill="#5E184B" transform="translate(13,10)"/>
<path d="M0 0 C0.66 0 1.32 0 2 0 C1.67 3.3 1.34 6.6 1 10 C0.01 10 -0.98 10 -2 10 C-2.33 12.31 -2.66 14.62 -3 17 C-4.5 15.625 -4.5 15.625 -6 14 C-6 13.34 -6 12.68 -6 12 C-6.66 11.67 -7.32 11.34 -8 11 C-6.35 10.67 -4.7 10.34 -3 10 C-3.0928125 8.63875 -3.0928125 8.63875 -3.1875 7.25 C-2.98313144 3.70761168 -2.47346304 2.47346304 0 0 Z " fill="#8B2F69" transform="translate(51,37)"/>
<path d="M0 0 C1.54269461 4.62808383 -0.54873693 8.17783898 -2.08984375 12.67578125 C-2.98799991 15.95617136 -3.16875735 18.61973924 -3 22 C-3.66 22 -4.32 22 -5 22 C-5.33 22.66 -5.66 23.32 -6 24 C-6 21.03 -6 18.06 -6 15 C-5.34 15 -4.68 15 -4 15 C-4.020625 13.7625 -4.04125 12.525 -4.0625 11.25 C-4.03749823 4.16199802 -4.03749823 4.16199802 -1.4375 1.25 C-0.7259375 0.63125 -0.7259375 0.63125 0 0 Z " fill="#A34178" transform="translate(59,12)"/>
<path d="M0 0 C0.66 0 1.32 0 2 0 C3.19876651 5.44893869 2.91360308 8.22169095 0 13 C-0.99 12.67 -1.98 12.34 -3 12 C-2.69106068 10.3743193 -2.3777305 8.74947252 -2.0625 7.125 C-1.88847656 6.22007813 -1.71445312 5.31515625 -1.53515625 4.3828125 C-1 2 -1 2 0 0 Z " fill="#4B1746" transform="translate(54,34)"/>
<path d="M0 0 C0.99 0 1.98 0 3 0 C3 0.66 3 1.32 3 2 C3.99 2 4.98 2 6 2 C7.125 8.75 7.125 8.75 6 11 C5.34 11 4.68 11 4 11 C3.34 9.35 2.68 7.7 2 6 C1.34 6 0.68 6 0 6 C0 4.02 0 2.04 0 0 Z " fill="#BE397D" transform="translate(0,12)"/>
<path d="M0 0 C-0.2165625 1.21236328 -0.2165625 1.21236328 -0.4375 2.44921875 C-0.623125 3.51785156 -0.80875 4.58648437 -1 5.6875 C-1.185625 6.74324219 -1.37125 7.79898437 -1.5625 8.88671875 C-1.95068074 11.64904062 -2.08259976 14.21742043 -2 17 C-4.94254088 11.50725702 -5.10256707 7.15402446 -5 1 C-3 0 -3 0 0 0 Z " fill="#8F336B" transform="translate(28,22)"/>
<path d="M0 0 C1.8871875 0.061875 1.8871875 0.061875 3.8125 0.125 C2.1875 5.875 2.1875 5.875 -1.1875 8.125 C-1.249375 7.50625 -1.31125 6.8875 -1.375 6.25 C-2.016419 3.84738859 -2.016419 3.84738859 -4.75 2.875 C-5.554375 2.6275 -6.35875 2.38 -7.1875 2.125 C-4.09861478 0.06574319 -3.47814073 -0.1140374 0 0 Z " fill="#BB3E81" transform="translate(21.1875,7.875)"/>
<path d="M0 0 C0.66 0 1.32 0 2 0 C1.54177532 3.46941546 1.10868317 6.67395049 0 10 C-0.99 10.33 -1.98 10.66 -3 11 C-2.53199289 6.94393835 -2.12046792 3.53411321 0 0 Z " fill="#BC427E" transform="translate(47,13)"/>
<path d="M0 0 C2.1875 2.0625 2.1875 2.0625 4 5 C3.75 8.8125 3.75 8.8125 3 12 C2.34 11.67 1.68 11.34 1 11 C1 9.02 1 7.04 1 5 C-1.475 4.01 -1.475 4.01 -4 3 C-4 2.34 -4 1.68 -4 1 C-2 0 -2 0 0 0 Z " fill="#9B2E6C" transform="translate(7,11)"/>
<path d="M0 0 C1.37562854 1.28965176 2.70766393 2.62689293 4 4 C4 4.66 4 5.32 4 6 C3.01 6.495 3.01 6.495 2 7 C2 7.66 2 8.32 2 9 C2.66 9.33 3.32 9.66 4 10 C2.35 10 0.7 10 -1 10 C-0.67 9.34 -0.34 8.68 0 8 C0.039992 6.00039988 0.04346799 3.99952758 0 2 C-0.66 1.67 -1.32 1.34 -2 1 C-1.34 0.67 -0.68 0.34 0 0 Z " fill="#5D2255" transform="translate(15,12)"/>
<path d="M0 0 C0 2.31 0 4.62 0 7 C-1.65 6.67 -3.3 6.34 -5 6 C-4.625 3.5625 -4.625 3.5625 -4 1 C-2 0 -2 0 0 0 Z " fill="#DC3889" transform="translate(59,7)"/>
<path d="M0 0 C1.65 0 3.3 0 5 0 C4.01 0.33 3.02 0.66 2 1 C2.99 2.98 3.98 4.96 5 7 C3.35 6.67 1.7 6.34 0 6 C-1 3 -1 3 0 0 Z " fill="#992B6B" transform="translate(68,47)"/>
<path d="M0 0 C1.32940404 3.98821211 0.43803613 6.11730245 -1 10 C-1.99 10.33 -2.98 10.66 -4 11 C-3.38461538 3.49230769 -3.38461538 3.49230769 -1.4375 1 C-0.963125 0.67 -0.48875 0.34 0 0 Z " fill="#BE427C" transform="translate(59,12)"/>
<path d="M0 0 C2.64 1.65 5.28 3.3 8 5 C7.67 5.66 7.34 6.32 7 7 C5.35 7 3.7 7 2 7 C2.33 5.68 2.66 4.36 3 3 C2.01 3 1.02 3 0 3 C0 2.01 0 1.02 0 0 Z " fill="#B16387" transform="translate(77,47)"/>
<path d="M0 0 C0.66 0 1.32 0 2 0 C3.67357513 5.28497409 3.67357513 5.28497409 4 8 C2.625 10.5 2.625 10.5 1 12 C0.01751476 7.9472484 -0.08159574 4.16138263 0 0 Z " fill="#613057" transform="translate(27,41)"/>
<path d="M0 0 C1.65 0.99 3.3 1.98 5 3 C4.67 3.99 4.34 4.98 4 6 C3.01 5.67 2.02 5.34 1 5 C1 4.34 1 3.68 1 3 C0.01 3 -0.98 3 -2 3 C-1 1 -1 1 0 0 Z " fill="#A03E72" transform="translate(72,44)"/>
<path d="M0 0 C3.875 0.875 3.875 0.875 5 2 C4.71269945 4.33944736 4.38063221 6.6739143 4 9 C3.33333333 7 2.66666667 5 2 3 C1.34 2.67 0.68 2.34 0 2 C0 1.34 0 0.68 0 0 Z " fill="#882E65" transform="translate(27,11)"/>
<path d="M0 0 C1.98 0.495 1.98 0.495 4 1 C2.63016497 4.16115776 2.0109362 4.9927092 -1 7 C-0.67 4.69 -0.34 2.38 0 0 Z " fill="#98286E" transform="translate(27,14)"/>
</svg>
